<svg width="227" height="170" viewBox="0 0 227 170" fill="none" xmlns="http://www.w3.org/2000/svg">
<g id="Henry">
<g id="hand">
<path d="M73.5 169.5C65.0378 146.059 59.867 135.584 48 133.5C52.7845 140.164 51.2063 143.463 45 149C34.3893 150.718 31.6222 149.091 30 143.5C24.6136 149.86 25.1185 155.909 30 169.5H73.5Z" fill="#A259FF"/>
<path d="M45 149C51.2063 143.463 52.7845 140.164 48 133.5L45.4171 130C46.146 129.016 46.9642 127.752 48 126V109C49.4884 103.235 48.4314 101.881 45 101C42.2393 101.328 40.306 103.987 36.5 111C31.0627 105.067 28.249 100.515 23.5 91C21.6105 87.964 20.1839 86.9854 17 86.5C14.5039 88.4896 13.9635 90.2142 14 94C12.0953 90.5076 10.6845 89.8231 7.5 91C4.46989 94.5022 6.40625 97.6521 7.5 102.5C5.3951 100.285 4.17864 100.415 2 101C1.06507 102.035 1.03989 103.762 2 109C2.96011 114.238 17 133.5 17 133.5L27 139L30 143.5C31.6222 149.091 34.3893 150.718 45 149Z" fill="#EDCCC3"/>
<path d="M48 133.5C59.867 135.584 65.0378 146.059 73.5 169.5H30C25.1185 155.909 24.6136 149.86 30 143.5M48 133.5C52.7845 140.164 51.2063 143.463 45 149C34.3893 150.718 31.6222 149.091 30 143.5M48 133.5L45.4171 130M30 143.5L27 139M27 139L17 133.5C17 133.5 2.96011 114.238 2 109C1.03989 103.762 1.06507 102.035 2 101C4.17864 100.415 5.3951 100.285 7.5 102.5M27 139H32M7.5 102.5C6.40625 97.6521 4.46989 94.5022 7.5 91C10.6845 89.8231 12.0953 90.5076 14 94M7.5 102.5C11.8714 109.562 14.2828 112.808 18.5 117.5M14 94C13.9635 90.2142 14.5039 88.4896 17 86.5C20.1839 86.9854 21.6105 87.964 23.5 91C28.249 100.515 31.0627 105.067 36.5 111M14 94C18.9272 102.843 21.7676 106.931 27 112.5M36.5 111C40.306 103.987 42.2393 101.328 45 101C48.4314 101.881 49.4884 103.235 48 109V126C46.9642 127.752 46.146 129.016 45.4171 130M36.5 111V114.5M42 133.5C43.274 132.471 44.2265 131.608 45.4171 130M34.5 126.5C32.1041 125.703 32.55 124.248 34.5 121" stroke="black"/>
</g>
<g id="body">
<path d="M114.284 2L112.777 11C112.777 11 108.152 11.6584 105.439 15L108.784 22.5C108.784 22.5 105.417 25.7501 104.784 28.5C104.168 31.1776 105.337 36.1472 105.929 37.5481C106.451 35.4684 107.284 32 107.284 32C107.284 32 122.744 33.6171 129.784 28C136.464 22.6703 149.784 24 149.784 24C147.667 25.7884 148.499 33.4821 150.784 34C155.399 35.046 156.603 32.3925 160.23 35.5C163.517 38.3159 166.372 46.5957 166.372 46.5957C166.553 44.6945 167.188 42.6391 167.284 41C167.099 38.8133 167.284 35.5 167.284 35.5C170.242 29.4232 166.832 22.6848 161.784 18.5C159.521 16.6239 158.6 17.7864 154.849 16.9984C153.593 11.8916 150.99 8.9101 145.284 7.5C131.592 7.16288 124.804 6.69535 114.284 2Z" fill="#FFE74C"/>
<path d="M112.777 73.1832C112.777 73.1832 119.625 82.5633 127.942 84.7212C144.949 83.9776 152.326 82.3708 160.23 71C162.027 68.199 164.642 65.7159 165.184 62.5C165.389 61.2815 165.532 59.975 165.65 58.5C165.886 55.5655 165.951 51.0126 166.372 46.5957C166.372 46.5957 163.517 38.3159 160.23 35.5C156.603 32.3925 155.399 35.046 150.784 34C148.499 33.4821 147.667 25.7884 149.784 24C149.784 24 136.464 22.6703 129.784 28C122.744 33.6171 107.284 32 107.284 32C106.997 33.2867 106.369 36.386 106.157 38.0677C105.361 44.3801 105.101 52.5971 105.439 56.1271C106.002 62.0005 108.24 67.5228 112.777 73.1832Z" fill="#EDCCC3"/>
<path d="M165.65 58.5C165.65 58.5 171.949 53.9948 170.284 49.5C169.767 48.1036 167.416 45.5134 166.372 44.0875C165.937 43.493 167.385 42.1836 167.284 41C167.188 42.6391 166.553 44.6945 166.372 46.5957C165.951 51.0126 165.886 55.5655 165.65 58.5Z" fill="#EDCCC3"/>
<path d="M102.014 46.5957C101.301 50.5507 105.439 56.1271 105.439 56.1271C105.101 52.5971 105.361 44.3801 106.157 38.0677C106.157 38.0677 106.068 37.878 105.929 37.5481C105.328 39.9433 104.64 42.5562 104.46 42.7121C103.391 43.6413 102.311 44.9501 102.014 46.5957Z" fill="#EDCCC3"/>
<path d="M160.23 81.7112V71C152.326 82.3708 144.949 83.9776 127.942 84.7212V87.7311V97.7641C131.18 99.686 133.522 100.782 135.784 101.422C137.641 101.947 139.443 102.165 141.64 102.279C144.963 101.61 147.589 100.911 149.784 100.094C154.326 98.405 157.022 96.2139 160.23 92.7476V81.7112Z" fill="#D3B4AC"/>
<path d="M225.784 169.5C220.081 145.744 207.229 129.703 177.842 99.2689C173.538 87.3012 169.675 83.4118 160.23 81.7112V92.7476C157.022 96.2139 154.326 98.405 149.784 100.094C147.589 100.911 144.963 101.61 141.64 102.279C139.443 102.165 137.641 101.947 135.784 101.422C133.522 100.782 131.18 99.686 127.942 97.7641V87.7311C120.695 89.5385 117.785 92.2303 116.201 102.279C92.9925 124.258 84.6438 138.778 80 169.5H110.784H187.284H225.784Z" fill="#A259FF"/>
<path d="M160.23 81.7112C169.675 83.4119 173.538 87.3012 177.842 99.2689C207.229 129.703 220.081 145.744 225.784 169.5H187.284M160.23 81.7112V71M160.23 81.7112V92.7476C157.022 96.2139 154.326 98.405 149.784 100.094M160.23 71C152.326 82.3708 144.949 83.9776 127.942 84.7212M160.23 71C162.027 68.1989 164.642 65.7159 165.184 62.5C165.389 61.2815 165.532 59.975 165.65 58.5M127.942 84.7212C119.625 82.5633 112.777 73.1832 112.777 73.1832C108.24 67.5228 106.002 62.0005 105.439 56.1271M127.942 84.7212V87.7311M167.284 35.5C170.242 29.4232 166.832 22.6848 161.784 18.5C159.521 16.6239 158.6 17.7864 154.849 16.9984C153.593 11.8916 150.99 8.9101 145.284 7.5C131.592 7.16288 124.804 6.69535 114.284 2L112.777 11C112.777 11 108.152 11.6584 105.439 15L108.784 22.5C108.784 22.5 105.417 25.7501 104.784 28.5C104.168 31.1776 105.337 36.1472 105.929 37.5481M167.284 35.5C167.284 35.5 167.099 38.8133 167.284 41M167.284 35.5C167.395 36.5792 167.398 39.0722 167.284 41M165.65 58.5C165.65 58.5 171.949 53.9948 170.284 49.5C169.767 48.1036 167.416 45.5134 166.372 44.0875C165.937 43.493 167.385 42.1836 167.284 41M165.65 58.5C165.886 55.5655 165.951 51.0126 166.372 46.5957M107.284 32C107.284 32 122.744 33.6171 129.784 28C136.464 22.6703 149.784 24 149.784 24C147.667 25.7884 148.499 33.4821 150.784 34C155.399 35.046 156.603 32.3925 160.23 35.5C163.517 38.3159 166.372 46.5957 166.372 46.5957M107.284 32C106.997 33.2867 106.369 36.386 106.157 38.0677M107.284 32C107.284 32 106.451 35.4684 105.929 37.5481M105.439 56.1271C105.439 56.1271 101.301 50.5507 102.014 46.5957C102.311 44.9501 103.391 43.6413 104.46 42.7121C104.64 42.5562 105.328 39.9433 105.929 37.5481M105.439 56.1271C105.101 52.5971 105.361 44.3801 106.157 38.0677M166.372 46.5957C166.553 44.6945 167.188 42.6391 167.284 41M106.157 38.0677C106.157 38.0677 106.068 37.878 105.929 37.5481M127.942 87.7311V97.7641C131.18 99.686 133.522 100.782 135.784 101.422M127.942 87.7311C120.695 89.5385 117.785 92.2303 116.201 102.279C92.9925 124.258 84.6438 138.778 80 169.5H110.784M113.284 42C117.774 39.6417 120.294 39.5236 124.784 42M135.284 42C140.083 40.3288 142.756 39.6446 147.284 42M110.784 169.5L116.201 135.5M110.784 169.5H187.284M187.284 169.5L176.784 135.5M135.784 101.422C137.641 101.947 139.443 102.165 141.64 102.279C144.963 101.61 147.589 100.911 149.784 100.094M135.784 101.422V135M135.784 135H134.784V136H136.784V135H135.784ZM149.784 100.094V131M149.784 131H148.784V132H150.784V131H149.784Z" stroke="black"/>
</g>
<path id="mouth" d="M123.266 65.1584C128.275 69.4352 135.44 69.17 140 65.1584" stroke="black"/>
<ellipse id="eye_left" cx="119.352" cy="46.0957" rx="1.95683" ry="2.0066" fill="black"/>
<ellipse id="eye_right" cx="140.878" cy="46.0957" rx="1.95683" ry="2.0066" fill="black"/>
</g>
</svg>
