<svg width="200" height="200" viewBox="0 0 200 200" fill="none" xmlns="http://www.w3.org/2000/svg">
    <g id="Letter" clip-path="url(#clip0_102_34)">
        <path id="envelope-top"
            d="M3.5 196.5V72.2641L93.1593 5.9162C97.2238 2.90845 102.776 2.90845 106.841 5.9162L196.5 72.2641V196.5H100H3.5Z"
            fill="white" stroke="black" stroke-width="7" />
        <g id="envelope-letter">
            <g id="letter-paper">
                <mask id="path-2-inside-1_102_34" fill="white">
                    <path
                        d="M35 78C35 74.134 38.134 71 42 71H158C161.866 71 165 74.134 165 78V164C165 167.866 161.866 171 158 171H42C38.134 171 35 167.866 35 164V78Z" />
                </mask>
                <path
                    d="M35 78C35 74.134 38.134 71 42 71H158C161.866 71 165 74.134 165 78V164C165 167.866 161.866 171 158 171H42C38.134 171 35 167.866 35 164V78Z"
                    fill="white" />
                <path
                    d="M29 78C29 70.8203 34.8203 65 42 65H158C165.18 65 171 70.8203 171 78H159C159 77.4477 158.552 77 158 77H42C41.4477 77 41 77.4477 41 78H29ZM165 171H35H165ZM42 171C34.8203 171 29 165.18 29 158V78C29 70.8203 34.8203 65 42 65V77C41.4477 77 41 77.4477 41 78V164C41 167.866 41.4477 171 42 171ZM158 65C165.18 65 171 70.8203 171 78V158C171 165.18 165.18 171 158 171C158.552 171 159 167.866 159 164V78C159 77.4477 158.552 77 158 77V65Z"
                    fill="black" mask="url(#path-2-inside-1_102_34)" />
            </g>
            <path id="letter-text"
                d="M118.216 131.976C118.216 134.472 118.568 136.248 119.272 137.304C120.008 138.328 121.112 138.84 122.584 138.84C124.184 138.84 125.736 138.216 127.24 136.968C128.744 135.688 129.976 133.592 130.936 130.68C131.928 127.768 132.424 123.848 132.424 118.92C132.424 112.904 131.16 107.672 128.632 103.224C126.136 98.744 122.6 95.272 118.024 92.808C113.48 90.312 108.12 89.064 101.944 89.064C97.016 89.064 92.552 89.976 88.552 91.8C84.552 93.624 81.112 96.184 78.232 99.48C75.384 102.744 73.192 106.584 71.656 111C70.12 115.384 69.352 120.152 69.352 125.304C69.352 132.312 70.568 138.216 73 143.016C75.432 147.816 78.808 151.448 83.128 153.912C87.48 156.376 92.536 157.608 98.296 157.608C101.816 157.608 105.208 157.304 108.472 156.696C111.768 156.12 114.872 155.256 117.784 154.104C118.552 154.808 119.176 155.784 119.656 157.032C120.136 158.312 120.376 159.544 120.376 160.728C118.104 161.592 115.704 162.328 113.176 162.936C110.68 163.576 108.12 164.072 105.496 164.424C102.872 164.776 100.28 164.952 97.72 164.952C90.424 164.952 83.928 163.448 78.232 160.44C72.536 157.464 68.072 153.032 64.84 147.144C61.608 141.256 59.992 133.976 59.992 125.304C59.992 119.128 61.016 113.416 63.064 108.168C65.112 102.92 67.992 98.344 71.704 94.44C75.448 90.504 79.88 87.464 85 85.32C90.152 83.144 95.8 82.056 101.944 82.056C107.768 82.056 113.112 82.936 117.976 84.696C122.84 86.424 127.032 88.904 130.552 92.136C134.104 95.368 136.84 99.272 138.76 103.848C140.712 108.424 141.688 113.544 141.688 119.208C141.688 125.096 140.744 130.024 138.856 133.992C136.968 137.96 134.536 140.968 131.56 143.016C128.616 145.032 125.512 146.04 122.248 146.04C119.56 146.04 117.24 145.496 115.288 144.408C113.368 143.32 111.896 141.848 110.872 139.992C109.848 138.104 109.336 135.928 109.336 133.464V110.712C108.536 109.912 107.448 109.224 106.072 108.648C104.728 108.04 103.256 107.736 101.656 107.736C99.352 107.736 97.432 108.52 95.896 110.088C94.392 111.656 93.256 113.752 92.488 116.376C91.752 119 91.384 121.896 91.384 125.064C91.384 129.192 92.008 132.552 93.256 135.144C94.504 137.704 96.568 138.984 99.448 138.984C100.888 138.984 102.392 138.552 103.96 137.688C105.528 136.792 106.936 135.656 108.184 134.28C109.464 132.872 110.408 131.432 111.016 129.96L114.472 134.664C113.704 136.52 112.44 138.36 110.68 140.184C108.952 141.976 106.936 143.48 104.632 144.696C102.36 145.88 99.976 146.472 97.48 146.472C92.712 146.472 88.968 144.552 86.248 140.712C83.528 136.872 82.168 131.72 82.168 125.256C82.168 120.776 82.92 116.696 84.424 113.016C85.928 109.304 88.12 106.36 91 104.184C93.912 101.976 97.464 100.872 101.656 100.872C105.016 100.872 108.136 101.512 111.016 102.792C113.928 104.04 116.328 105.576 118.216 107.4V131.976Z"
                fill="black" />
        </g>
        <g id="envelope-base" filter="url(#filter0_d_102_34)">
            <path d="M0 70.5V135.25V143.344V151.438V167.625V200L81.25 129.686L75 125.133L50 106.922L0 70.5Z"
                fill="white" />
            <path
                d="M0 200H100H200L118.75 129.686L112.5 134.238L108.832 136.91C103.568 140.745 96.4318 140.745 91.1682 136.91L87.5 134.238L81.25 129.686L0 200Z"
                fill="white" />
            <path d="M200 135.25V70.5L150 106.922L125 125.133L118.75 129.686L200 200V167.625V151.438V143.344V135.25Z"
                fill="white" />
            <path
                d="M72.9392 127.962L75.6291 129.921L3.5 192.342V167.625V151.438V143.344V135.25V77.3797L47.9392 109.751L72.9392 127.962ZM9.39285 196.5L81.4373 134.152L85.4392 137.067L89.1074 139.739C95.5993 144.468 104.401 144.468 110.893 139.739L114.561 137.067L118.563 134.152L190.607 196.5H100H9.39285ZM196.5 167.625V192.342L124.371 129.921L127.061 127.962L152.061 109.751L196.5 77.3797V135.25V143.344V151.438V167.625Z"
                stroke="black" stroke-width="7" />
        </g>
    </g>
    <defs>
        <filter id="filter0_d_102_34" x="-4" y="70.5" width="208" height="137.5" filterUnits="userSpaceOnUse"
            color-interpolation-filters="sRGB">
            <feFlood flood-opacity="0" result="BackgroundImageFix" />
            <feColorMatrix in="SourceAlpha" type="matrix" values="0 0 0 0 0 0 0 0 0 0 0 0 0 0 0 0 0 0 127 0"
                result="hardAlpha" />
            <feOffset dy="4" />
            <feGaussianBlur stdDeviation="2" />
            <feComposite in2="hardAlpha" operator="out" />
            <feColorMatrix type="matrix" values="0 0 0 0 0 0 0 0 0 0 0 0 0 0 0 0 0 0 0.25 0" />
            <feBlend mode="normal" in2="BackgroundImageFix" result="effect1_dropShadow_102_34" />
            <feBlend mode="normal" in="SourceGraphic" in2="effect1_dropShadow_102_34" result="shape" />
        </filter>
        <clipPath id="clip0_102_34">
            <rect width="200" height="200" fill="white" />
        </clipPath>
    </defs>
</svg>