<svg id = "toolbox" width="218" height="204" viewBox="0 0 218 204" fill="none" xmlns="http://www.w3.org/2000/svg">
<g>
<path id="toolbox-top" d="M31.5 102V48H194.5V102H178V65H48V102H31.5Z" fill="#F5B41A" stroke="black" stroke-width="4"/>
<g id="screwdriver" class = "tool">
<g id="screwdriver-body">
<path d="M113.5 31L108 79.5L117.5 80.5L124.5 32.5C124.5 32.5 127.5 29 128 27.5C128.5 26 126.5 11.5 125.5 11.5C124.5 11.5 118.5 10.5 117.5 11C116.5 11.5 111.5 23.5 111.5 25.5C111.5 27.5 113.5 31 113.5 31Z" fill="#D9D9D9"/>
<path d="M98 103.5L94.5 131.5H115.5L119.5 103.5L122.5 81L117.5 80.5L108 79.5L101 78.5L98 103.5Z" fill="#779DBC"/>
<path d="M108 79.5L101 78.5L98 103.5L94.5 131.5H115.5L119.5 103.5L122.5 81L117.5 80.5M108 79.5L113.5 31C113.5 31 111.5 27.5 111.5 25.5C111.5 23.5 116.5 11.5 117.5 11C118.5 10.5 124.5 11.5 125.5 11.5C126.5 11.5 128.5 26 128 27.5C127.5 29 124.5 32.5 124.5 32.5L117.5 80.5M108 79.5L117.5 80.5" stroke="black" stroke-width="2"/>
</g>
<path id="screwdriver-shadow-top" d="M127.5 27.5C128 26 127 13 125 12.5C123 12 121 12 121 12C121 12 124 26.5 123.5 27.5C123 28.5 122.5 29.5 122 30C121.5 30.5 113 79 113 79L117 79.5L123.5 32.5C123.5 32.5 127 29 127.5 27.5Z" fill="#969696"/>
<path id="screwdriver-shadow-bottom" d="M122 82L112.5 81L108 111.5L117.5 112L122 82Z" fill="#638098"/>
</g>
<g id="wrench" class = "tool">
<path id="wrench_2" d="M136 133.5L148 104C148 104 166.5 58.0001 166.5 55.5C166.5 53 158.231 44.5464 158.5 36.5C158.78 28.1198 161.461 22.0565 168.5 17.5C172.284 15.0503 179 13.5 179.5 14C180 14.5 174 29 174 29C174 29 174 32 175.5 34C177 36 185 40 186 40C187 40 192.5 37.5 194 36.5C195.5 35.5 198.5 22.5 200 22.5C201.5 22.5 206.051 30.4889 206.5 36.5C207.105 44.6061 204.136 50.1681 198 55.5C193.374 59.5198 184.5 61 183.5 61.5C182.5 62 167.5 104 167.5 104L156.5 133.5H136Z" fill="#D9D9D9" stroke="black" stroke-width="2"/>
<path id="wrench-shadow" d="M168 100C168 100 161 100 162 99.5C163 99 175 60 176.5 58.5C178 57 189.641 53.6619 195 48C199.261 43.4986 200.494 34.0219 200.494 34.0219L200.5 24C200.5 24 202.563 26.9244 203.5 29C204.669 31.5914 205.5 36 205.5 36C205.814 40.7766 205.789 43.796 203.5 48C201.056 52.4881 198.368 54.3463 194 57C190.25 59.2785 183 61 183 61L168 100Z" fill="#969696"/>
</g>
<g id="hammer" class = "tool">
<g id="hammer-base">
<path d="M20 44.5L35.5 40L34 35.5L40.5 34C46.8708 34 48.7319 37.0065 53 35.9254C54.7614 35.4793 56.9327 34.337 60 32C60.8275 29.5885 65.5 25.5 68 25C70.5 24.4999 78 28.4999 78.5 25C79 21.5 63.2027 13.7703 52 14C43.5422 14.1734 31.5 21 31.5 21L30 16L12.5 22.5L20 44.5Z" fill="#D9D9D9"/>
<path d="M40.5 34L58.5 101.5L66.5 133.5H78.5H86.5L78 101.5L60 32C56.9327 34.337 54.7614 35.4793 53 35.9254C48.7319 37.0065 46.8708 34 40.5 34Z" fill="#779DBC"/>
<path d="M34 35.5L35.5 40L20 44.5L12.5 22.5L30 16L31.5 21C31.5 21 43.5422 14.1734 52 14C63.2027 13.7703 79 21.5 78.5 25C78 28.4999 70.5 24.4999 68 25C65.5 25.5 60.8275 29.5885 60 32M34 35.5C34 35.5 37.9616 34.5858 40.5 34M34 35.5L40.5 34M40.5 34C47.5294 60.3604 58.5 101.5 58.5 101.5M40.5 34L58.5 101.5M40.5 34C46.8708 34 48.7319 37.0065 53 35.9254C54.7614 35.4793 56.9327 34.337 60 32M58.5 101.5L66.5 133.5H78.5H86.5L78 101.5M78 101.5C78 101.5 67.0294 59.1415 60 32M78 101.5L60 32" stroke="black" stroke-width="3"/>
</g>
<path id="hammer-shadow-bottom" d="M52.5 37.5L78 132H84.5L59 34C59 34 58.4204 34.6419 58 35C57.1333 35.7383 56.5323 36.0196 55.5 36.5C54.3803 37.021 52.5 37.5 52.5 37.5Z" fill="#638098"/>
<path id="hammer-shadow-top" d="M62 16.5C58.3724 15.5265 56.2528 15.3468 52.5 15.5C52.5 15.5 54.3539 20.593 54.5 24C54.6789 28.1704 52.5 34.5 52.5 34.5C52.5066 34.4978 56.4589 33.5331 58.5 31.5C59.6901 30.3146 59.8617 29.7352 61 28.5C62.5087 26.8629 63.4253 25.8076 65.5 25C67.5099 24.2177 71 24 71 24C71 24 77 25.5 77.5 25C78 24.5001 74.3444 21.985 72 20.5C68.4468 18.2493 66.0623 17.5903 62 16.5Z" fill="#969696"/>
</g>
<path id="toolbox-bottom" d="M16 102.188V184.968C16 184.968 16.3198 188.924 17.8957 190.656C20.112 193.09 26.1106 192.551 26.1106 192.551H199.254C199.254 192.551 204.08 192.499 206.205 190.656C208.081 189.028 209.049 184.968 209.049 184.968V102.188H197.043H180.297H76.6635H57.0743H44.752H28.3223H16Z" fill="#F5B41A" stroke="black" stroke-width="5" stroke-linejoin="round"/>
<path id="Vector 1" d="M206 189.5C201.5 193.5 21.5 192 19.5 190C17.5 188 18.5 180.5 18.5 180.5C18.5 180.5 185 180.5 190 175C195 169.5 201 104.5 201 104.5H206.5C206.5 104.5 210.5 185.5 206 189.5Z" fill="#BD8B14"/>
</g>
</svg>
